<?xml version="1.0" standalone="no"?>
<!DOCTYPE svg PUBLIC "-//W3C//DTD SVG 20010904//EN"
 "http://www.w3.org/TR/2001/REC-SVG-20010904/DTD/svg10.dtd">
<svg version="1.0" xmlns="http://www.w3.org/2000/svg"
 width="434.000000pt" height="243.000000pt" viewBox="0 0 434.000000 243.000000"
 preserveAspectRatio="xMidYMid meet">

<g transform="translate(0.000000,243.000000) scale(0.100000,-0.100000)"
fill="#000000" stroke="none">
<path d="M0 1210 l0 -1210 2170 0 2170 0 0 1210 0 1210 -2170 0 -2170 0 0
-1210z m4310 5 l0 -1175 -25 0 c-14 0 -972 0 -2130 0 -1158 0 -2109 0 -2115 0
-11 0 -15 2332 -3 2343 3 4 966 7 2140 7 l2133 0 0 -1175z"/>
<path d="M2222 1907 c-35 -42 -15 -117 32 -117 49 0 72 62 40 108 -17 24 -56
29 -72 9z"/>
<path d="M1065 1699 c-114 -40 -196 -123 -248 -249 -21 -53 -22 -67 -25 -472
-3 -410 -3 -417 17 -437 25 -25 40 -26 67 -7 18 13 19 30 22 240 2 124 6 226
8 226 3 0 26 -18 51 -40 51 -45 147 -80 217 -80 229 0 411 234 375 484 -34
246 -272 411 -484 335z m220 -123 c187 -87 223 -367 65 -510 -23 -21 -59 -45
-78 -53 -55 -23 -152 -20 -206 7 -59 28 -130 107 -150 167 -21 61 -20 157 1
223 20 63 86 140 145 169 61 30 156 29 223 -3z"/>
<path d="M1900 1706 c-90 -24 -147 -73 -198 -170 l-27 -51 -3 -284 c-3 -256
-2 -285 14 -302 21 -24 46 -24 67 -1 13 15 16 57 19 288 l3 271 30 49 c42 67
89 91 189 98 43 3 84 10 92 17 22 18 17 66 -8 83 -27 19 -113 20 -178 2z"/>
<path d="M2224 1706 c-18 -14 -19 -30 -19 -406 0 -376 1 -392 19 -406 27 -19
42 -18 66 6 19 19 20 33 20 400 0 367 -1 381 -20 400 -24 24 -39 25 -66 6z"/>
<path d="M2660 1706 c-89 -23 -156 -80 -201 -172 -23 -48 -24 -57 -27 -324 -2
-151 0 -285 3 -297 7 -31 50 -41 75 -18 19 17 20 33 20 279 0 241 2 264 21
306 25 56 44 77 91 101 68 35 170 17 220 -38 9 -10 26 -39 37 -63 19 -42 21
-65 21 -306 0 -249 1 -262 20 -279 16 -15 26 -17 48 -9 l27 9 5 275 c5 299 7
307 69 373 67 73 182 77 255 9 61 -57 66 -81 66 -359 0 -138 4 -263 10 -277
14 -37 58 -46 82 -16 16 20 18 45 18 275 0 306 -9 349 -90 438 -66 72 -125
100 -210 101 -83 0 -144 -27 -204 -89 l-45 -46 -41 45 c-69 74 -176 107 -270
82z"/>
<path d="M1900 740 c-22 -22 -26 -51 -10 -81 8 -15 7 -21 -4 -25 -21 -8 -35
-55 -25 -82 5 -12 20 -28 35 -34 22 -10 31 -9 56 5 28 16 32 16 48 2 24 -22
45 1 25 29 -11 14 -11 24 -3 42 9 19 8 28 -1 37 -10 9 -15 8 -27 -7 -11 -15
-17 -17 -26 -8 -9 9 -8 16 5 30 35 38 10 112 -36 112 -9 0 -26 -9 -37 -20z
m57 -36 c2 -5 -3 -19 -11 -29 -14 -19 -15 -19 -21 -2 -4 9 -4 24 -1 33 6 16
27 15 33 -2z m-17 -114 c19 -36 -14 -56 -40 -25 -10 12 -10 18 0 30 17 20 27
19 40 -5z"/>
<path d="M1010 630 l0 -120 25 0 c23 0 25 3 25 50 l0 50 50 0 50 0 0 -50 c0
-47 2 -50 25 -50 l25 0 0 120 0 120 -25 0 c-23 0 -25 -3 -25 -50 l0 -50 -50 0
-50 0 0 50 c0 47 -2 50 -25 50 l-25 0 0 -120z"/>
<path d="M1520 630 c0 -113 1 -120 20 -120 19 0 20 7 20 120 0 113 -1 120 -20
120 -19 0 -20 -7 -20 -120z"/>
<path d="M1630 630 l0 -120 25 0 c23 0 25 4 25 40 0 32 4 40 19 40 10 0 30
-17 45 -40 19 -29 33 -40 51 -40 l25 0 -26 39 -26 40 22 29 c18 24 21 38 16
66 -9 49 -38 66 -113 66 l-63 0 0 -120z m134 58 c17 -27 -5 -52 -48 -56 l-36
-3 0 41 0 41 36 -3 c22 -2 42 -10 48 -20z"/>
<path d="M2252 680 l-53 -70 -45 60 c-25 33 -50 62 -55 65 -5 4 -9 -41 -9
-109 0 -109 1 -116 20 -116 18 0 20 7 20 62 l0 62 31 -42 c17 -23 34 -42 39
-42 4 0 18 16 31 35 13 19 27 35 32 35 4 0 7 -25 7 -55 0 -48 2 -55 20 -55 19
0 20 7 20 120 0 66 -1 120 -2 120 -2 -1 -27 -32 -56 -70z"/>
<path d="M2620 630 c0 -113 1 -120 20 -120 17 0 20 7 20 53 l1 52 48 -53 c37
-42 53 -53 72 -50 24 3 23 3 -11 43 -66 75 -65 66 -15 134 44 59 44 61 20 61
-18 0 -35 -15 -67 -57 l-43 -57 -3 57 c-3 49 -6 57 -22 57 -19 0 -20 -8 -20
-120z"/>
<path d="M2850 630 l0 -120 80 0 c73 0 80 2 80 20 0 18 -7 20 -55 20 -54 0
-55 0 -55 30 0 29 1 30 50 30 43 0 50 3 50 20 0 17 -7 20 -50 20 -49 0 -50 1
-50 30 0 30 1 30 55 30 48 0 55 2 55 20 0 18 -7 20 -80 20 l-80 0 0 -120z"/>
<path d="M3070 683 c0 -95 14 -140 50 -158 44 -23 78 -19 111 14 28 28 29 33
29 120 0 84 -1 91 -20 91 -18 0 -20 -7 -20 -84 0 -92 -11 -116 -54 -116 -38 0
-46 19 -46 112 0 87 0 88 -25 88 -24 0 -25 -2 -25 -67z"/>
<path d="M3330 630 c0 -113 1 -120 20 -120 16 0 20 7 20 35 0 34 1 35 39 35
56 0 91 31 91 81 0 62 -33 89 -110 89 l-60 0 0 -120z m119 66 c7 -8 11 -27 9
-43 -3 -25 -7 -28 -45 -31 l-43 -3 0 45 c0 46 0 46 34 46 18 0 39 -6 45 -14z"/>
<path d="M1305 633 c-28 -58 -51 -110 -53 -115 -8 -18 38 -7 48 12 9 16 21 20
64 20 45 0 54 -3 59 -20 3 -12 14 -20 27 -20 14 0 20 5 17 13 -20 51 -101 217
-106 217 -4 0 -29 -48 -56 -107z m73 -8 c16 -35 16 -35 -17 -35 -29 0 -30 1
-20 30 13 37 22 38 37 5z"/>
<path d="M2405 633 c-28 -58 -51 -110 -53 -115 -8 -18 38 -7 48 12 9 16 21 20
64 20 45 0 54 -3 59 -20 3 -12 14 -20 27 -20 14 0 20 5 17 13 -20 51 -101 217
-106 217 -4 0 -29 -48 -56 -107z m81 -40 c-2 -3 -15 -3 -29 -1 -25 3 -25 4
-11 38 l15 35 15 -34 c8 -19 12 -36 10 -38z"/>
</g>
</svg>
